<svg xmlns="http://www.w3.org/2000/svg" width="439.216" height="547.095" viewBox="0 0 439.216 547.095">
  <g id="angels-S" opacity="0.3">
    <path id="angels-S-2" data-name="angels-S" d="M0,72.247Q37.3,36.138,91.161,18.062A345.2,345.2,0,0,1,201.469,0a281.725,281.725,0,0,1,73.008,9.8,216.827,216.827,0,0,1,67,30.457,164.266,164.266,0,0,1,49.354,53.151q19.133,32.5,19.133,78.962,0,36.153-13.092,61.934a137.475,137.475,0,0,1-33.732,43.363,166,166,0,0,1-46.809,27.879,390.116,390.116,0,0,1-52.353,16.488q-51.388,12.366-75.553,23.727t-24.18,35.089q0,24.777,19.631,34.594a88.418,88.418,0,0,0,39.788,9.773,148.349,148.349,0,0,0,68.488-16.488,185.143,185.143,0,0,0,54.416-41.309l92.653,100.141Q399.94,506.8,340.99,526.9A369.84,369.84,0,0,1,220.6,547.095a322.723,322.723,0,0,1-76.533-9.323,211.338,211.338,0,0,1-69.014-29.978,159.327,159.327,0,0,1-49.866-54.185Q6.085,420.094,6.056,371.56q0-37.143,14.116-63.988a142.183,142.183,0,0,1,37.272-45.431A200.6,200.6,0,0,1,109.3,232.163a374.193,374.193,0,0,1,56.9-17.537q48.36-11.362,70.009-20.655t21.664-30.952q0-22.663-19.631-32a98.984,98.984,0,0,0-42.83-9.263,128.373,128.373,0,0,0-57.4,13.445,185,185,0,0,0-47.35,32.976Z" transform="translate(0)" fill="#816f6f" opacity="0.3"/>
  </g>
</svg>
