<svg xmlns="http://www.w3.org/2000/svg" width="148.15mm" height="62.97mm" viewBox="0 0 419.96 178.49">
  <title>logo</title>
  <path d="M246.37,111.17a23.13,23.13,0,0,1,8.88-5.15A34.19,34.19,0,0,1,266,104.3a28.23,28.23,0,0,1,7.11.93,21.58,21.58,0,0,1,6.52,2.9,15.57,15.57,0,0,1,4.8,5.05,14.17,14.17,0,0,1,1.87,7.5,12.57,12.57,0,0,1-1.28,5.88,13,13,0,0,1-3.28,4.12,16.13,16.13,0,0,1-4.56,2.65,39.77,39.77,0,0,1-5.1,1.57,41.66,41.66,0,0,0-7.36,2.26,3.51,3.51,0,0,0-2.35,3.33,3.34,3.34,0,0,0,1.91,3.29,8.74,8.74,0,0,0,3.87.93,14.77,14.77,0,0,0,6.67-1.57,17.87,17.87,0,0,0,5.3-3.93l9,9.52a24.75,24.75,0,0,1-9.56,5.64,37,37,0,0,1-11.72,1.91,32.06,32.06,0,0,1-7.45-.88,20.85,20.85,0,0,1-6.72-2.85A14.62,14.62,0,0,1,247,139.61a12.7,12.7,0,0,1,1.37-6.08,13.78,13.78,0,0,1,3.63-4.32,19.78,19.78,0,0,1,5-2.84,36.37,36.37,0,0,1,5.54-1.67,46.1,46.1,0,0,0,6.82-2,3,3,0,0,0,2.11-2.95,3.11,3.11,0,0,0-1.91-3,10,10,0,0,0-4.17-.88,12.72,12.72,0,0,0-5.59,1.28,17.53,17.53,0,0,0-4.61,3.14Z" fill="#ed1c29"/>
  <path d="M385.48,157.06A28.16,28.16,0,0,1,339,169.83a55.7,55.7,0,0,1-15.82-27.45,97.23,97.23,0,0,1,1.9-52,68.38,68.38,0,0,1,46.22-44.89A50.32,50.32,0,0,0,407.59,0l4.28,6.86A35.89,35.89,0,0,1,374,61l.76.42a30.41,30.41,0,0,0,30.26-.28,30.9,30.9,0,0,0,13.77-17.2l.48,2.28a31.1,31.1,0,0,1-17.07,34.39c-12.92,6.14-32.78,1.35-39.4-8.51,0,0,4.86,17.34,22.3,21.25,10.39,2.33,24.88-.86,30.45-10.86v3.29c-.42,13.58-7.42,24.68-16.58,28.44s-22.75,2.11-31-3.33c-10.58-7-15.63-15.73-16.73-24.68l-.14,3c-.62,13,6.86,25,17.73,32.68,10.61,7.55,25.55,9.6,38,5.87L405.44,130c-8.29,13.27-26.28,19.08-41.17,14.3s-27.73-18.68-26.21-36.6c-.93,10.9.57,24.4,7.58,35.22,8.68,13.4,24.92,19.78,39.84,14.1m-46.66,21.2a69.65,69.65,0,0,1-22.31-63.63c-4.7,27.53-14.64,53.63-47.36,63.63,25.22,1.29,40-2.38,44-22.87-.29,14.68,8.86,24.4,25.63,22.87" fill="#e2e3e4"/>
  <path d="M242.84,80.56H226.46v74.15h16.38ZM218.37,119.7a24.23,24.23,0,0,0-5.05-8.34,21.41,21.41,0,0,0-7.75-5.24,26.11,26.11,0,0,0-9.9-1.82,28.55,28.55,0,0,0-10.4,1.86,25,25,0,0,0-8.34,5.25,24.53,24.53,0,0,0-5.59,8.24,27.53,27.53,0,0,0-2.06,10.84,27,27,0,0,0,2.11,11,23.15,23.15,0,0,0,5.79,8.09,25.17,25.17,0,0,0,8.58,5,31.32,31.32,0,0,0,10.39,1.71,30,30,0,0,0,13.1-2.7,22.57,22.57,0,0,0,9.07-7.69l-11.18-7.07a12.72,12.72,0,0,1-4.32,3.68,13.48,13.48,0,0,1-6.47,1.42,12.88,12.88,0,0,1-7.8-2.6,10.51,10.51,0,0,1-2.64-2.89,8.46,8.46,0,0,1-1.23-3.73h35.41a18.26,18.26,0,0,0,.09-1.86v-2a32.05,32.05,0,0,0-1.81-11.18m-33.69,5a8.64,8.64,0,0,1,1-3.58,10,10,0,0,1,2.35-3,11.29,11.29,0,0,1,3.44-2,12.15,12.15,0,0,1,4.31-.74c3.2,0,5.61.92,7.21,2.75a9.65,9.65,0,0,1,2.4,6.57Zm-37.91,10.1a11.86,11.86,0,0,1-2.35,3.93,11.59,11.59,0,0,1-8.68,3.72,10.92,10.92,0,0,1-4.86-1,11.14,11.14,0,0,1-3.58-2.74,12.17,12.17,0,0,1-2.25-4,14,14,0,0,1-.79-4.71,14.34,14.34,0,0,1,.79-4.8,11.73,11.73,0,0,1,2.25-3.93,10.86,10.86,0,0,1,3.58-2.64,11.49,11.49,0,0,1,4.86-1,11.75,11.75,0,0,1,4.9,1,11.39,11.39,0,0,1,3.73,2.69,11.94,11.94,0,0,1,2.4,4,13.34,13.34,0,0,1,.84,4.7,13.63,13.63,0,0,1-.84,4.81m16.14-28.93h-15.2v6.28h-.2a15.27,15.27,0,0,0-6.77-5.79,21.62,21.62,0,0,0-8.82-1.87,21.82,21.82,0,0,0-17.12,7.75,24.9,24.9,0,0,0-4.56,8.14,29.87,29.87,0,0,0-1.57,9.72,29.38,29.38,0,0,0,1.57,9.66,23.79,23.79,0,0,0,4.56,8,21.64,21.64,0,0,0,7.31,5.44,23.19,23.19,0,0,0,9.9,2,20.56,20.56,0,0,0,8.73-1.76,15.87,15.87,0,0,0,6.08-4.71h.3v2.94q0,6.18-3.39,9.91t-10.44,3.72a24.71,24.71,0,0,1-8.39-1.52,23.5,23.5,0,0,1-7.8-4.66l-8,11.48a36.58,36.58,0,0,0,11.82,5.69,47.81,47.81,0,0,0,13.29,2A38.61,38.61,0,0,0,146,176.54a23.77,23.77,0,0,0,9.07-5.21,23.43,23.43,0,0,0,5.79-8.77,34.35,34.35,0,0,0,2.06-12.46Zm-60,48.84V124.5a29.07,29.07,0,0,0-.93-7.25,18.1,18.1,0,0,0-3-6.43,16,16,0,0,0-5.54-4.56A18,18,0,0,0,85,104.49a16.29,16.29,0,0,0-4.8.69A20.59,20.59,0,0,0,76.06,107a13.67,13.67,0,0,0-3.34,2.6,16.27,16.27,0,0,0-2.3,3.09h-.2v-6.77H54.63v48.84H70.81V128.23a14.52,14.52,0,0,1,.54-4A10.54,10.54,0,0,1,73,120.87a7.68,7.68,0,0,1,2.7-2.3,8.06,8.06,0,0,1,3.77-.83,7,7,0,0,1,3.58.83,5.85,5.85,0,0,1,2.21,2.26,10.94,10.94,0,0,1,1.13,3.28A21.54,21.54,0,0,1,86.7,128v26.67ZM10.49,121.26a21,21,0,0,1,5.45-3.52,15.48,15.48,0,0,1,6.62-1.48A11,11,0,0,1,28.83,118a6,6,0,0,1,2.55,5.35v.78a104.43,104.43,0,0,0-10.88.59,39.82,39.82,0,0,0-10.16,2.35,19.17,19.17,0,0,0-7.45,5A12.34,12.34,0,0,0,0,140.59a14.48,14.48,0,0,0,1.67,7.25,13.67,13.67,0,0,0,4.26,4.71,17.69,17.69,0,0,0,5.74,2.55,24.71,24.71,0,0,0,6.08.79,20.09,20.09,0,0,0,8.19-1.67,12.06,12.06,0,0,0,5.64-4.71h.29v5.2H46.59V130.1a47.42,47.42,0,0,0-1.23-11.53,20.11,20.11,0,0,0-3.87-8,15.51,15.51,0,0,0-6.92-4.71,31.36,31.36,0,0,0-10.44-1.52,34.49,34.49,0,0,0-11.72,2.06,28.08,28.08,0,0,0-10.06,6.18ZM31.87,135.1a10.07,10.07,0,0,1-2.59,7.3q-2.61,2.7-7.51,2.7a13.27,13.27,0,0,1-2.45-.24,6.92,6.92,0,0,1-2.26-.84,4.83,4.83,0,0,1-1.61-1.57,4.15,4.15,0,0,1-.64-2.35,4.62,4.62,0,0,1,1.37-3.48,8.77,8.77,0,0,1,3.48-2,22.29,22.29,0,0,1,4.81-.94q2.7-.24,5.34-.24h2.06Z" fill="#75c044"/>
</svg>
